<svg width="32" height="32" viewBox="0 0 32 32" fill="none" xmlns="http://www.w3.org/2000/svg">
<g clip-path="url(#clip0_112_40)">
<rect width="32" height="32" fill="url(#paint0_linear_112_40)"/>
<g style="mix-blend-mode:color-burn" filter="url(#filter0_d_112_40)">
<path d="M20.571 12C20.6392 11.25 20.4574 10.6629 20.0256 10.2386C19.5938 9.80682 18.8665 9.59091 17.8438 9.59091C17.1922 9.59091 16.6468 9.66667 16.2074 9.81818C15.7756 9.9697 15.4384 10.178 15.196 10.4432C14.9612 10.7083 14.8134 11.0152 14.7528 11.3636C14.6847 11.6364 14.6884 11.8864 14.7642 12.1136C14.8475 12.3333 15.0028 12.5341 15.2301 12.7159C15.465 12.8977 15.7718 13.0606 16.1506 13.2045C16.5369 13.3485 16.9953 13.4773 17.5256 13.5909L19.3438 14C20.5862 14.2727 21.6278 14.6326 22.4688 15.0795C23.3172 15.5189 23.9839 16.0417 24.4688 16.6477C24.9536 17.2538 25.2718 17.9318 25.4233 18.6818C25.5824 19.4318 25.5862 20.25 25.4347 21.1364C25.1771 22.6667 24.5824 23.9621 23.6506 25.0227C22.7188 26.0833 21.5028 26.8902 20.0028 27.4432C18.5028 27.9962 16.768 28.2727 14.7983 28.2727C12.7831 28.2727 11.071 27.9735 9.66193 27.375C8.26042 26.7689 7.24527 25.8447 6.61648 24.6023C5.99527 23.3523 5.84375 21.7576 6.16193 19.8182H12.1619C12.071 20.5303 12.1468 21.1288 12.3892 21.6136C12.6316 22.0985 13.0218 22.4659 13.5597 22.7159C14.0975 22.9659 14.768 23.0909 15.571 23.0909C16.2528 23.0909 16.8362 23.0076 17.321 22.8409C17.8059 22.6742 18.1884 22.4432 18.4688 22.1477C18.7491 21.8523 18.9195 21.5152 18.9801 21.1364C19.0407 20.7879 18.9801 20.4773 18.7983 20.2045C18.6165 19.9318 18.2869 19.6856 17.8097 19.4659C17.3324 19.2462 16.6771 19.0455 15.8438 18.8636L13.6165 18.3636C11.6392 17.9091 10.1468 17.1591 9.1392 16.1136C8.13163 15.0682 7.77557 13.6364 8.07102 11.8182C8.31345 10.3333 8.9233 9.03788 9.90057 7.93182C10.8854 6.81818 12.1354 5.95454 13.6506 5.34091C15.1733 4.7197 16.8589 4.40909 18.7074 4.40909C20.5862 4.40909 22.1581 4.72348 23.4233 5.35227C24.696 5.98106 25.6089 6.86364 26.1619 8C26.7225 9.13636 26.8741 10.4697 26.6165 12H20.571Z" fill="url(#paint1_linear_112_40)"/>
</g>
</g>
<defs>
<filter id="filter0_d_112_40" x="1.68466" y="4.40909" width="29.3182" height="31.8636" filterUnits="userSpaceOnUse" color-interpolation-filters="sRGB">
<feFlood flood-opacity="0" result="BackgroundImageFix"/>
<feColorMatrix in="SourceAlpha" type="matrix" values="0 0 0 0 0 0 0 0 0 0 0 0 0 0 0 0 0 0 127 0" result="hardAlpha"/>
<feOffset dy="4"/>
<feGaussianBlur stdDeviation="2"/>
<feComposite in2="hardAlpha" operator="out"/>
<feColorMatrix type="matrix" values="0 0 0 0 0 0 0 0 0 0 0 0 0 0 0 0 0 0 0.25 0"/>
<feBlend mode="normal" in2="BackgroundImageFix" result="effect1_dropShadow_112_40"/>
<feBlend mode="normal" in="SourceGraphic" in2="effect1_dropShadow_112_40" result="shape"/>
</filter>
<linearGradient id="paint0_linear_112_40" x1="0" y1="16" x2="32" y2="16" gradientUnits="userSpaceOnUse">
<stop stop-color="#FBC2EB"/>
<stop offset="1" stop-color="#A6C1EE"/>
</linearGradient>
<linearGradient id="paint1_linear_112_40" x1="0" y1="16" x2="32" y2="16" gradientUnits="userSpaceOnUse">
<stop stop-color="#874DA2"/>
<stop offset="1" stop-color="#C43A30"/>
</linearGradient>
<clipPath id="clip0_112_40">
<rect width="32" height="32" fill="white"/>
</clipPath>
</defs>
</svg>
