<svg width="400" height="400" viewBox="0 0 400 400" fill="none" xmlns="http://www.w3.org/2000/svg">
<g clip-path="url(#clip0_201_2)">
<rect width="400" height="400" fill="url(#paint0_linear_201_2)"/>
<g style="mix-blend-mode:color-burn" filter="url(#filter0_d_201_2)">
<path d="M257.138 145C257.99 135.625 255.717 128.286 250.32 122.983C244.922 117.585 235.831 114.886 223.047 114.886C214.903 114.886 208.085 115.833 202.592 117.727C197.195 119.621 192.981 122.225 189.95 125.54C187.015 128.854 185.168 132.689 184.411 137.045C183.558 140.455 183.606 143.58 184.553 146.42C185.594 149.167 187.536 151.676 190.376 153.949C193.312 156.222 197.147 158.258 201.882 160.057C206.712 161.856 212.441 163.466 219.07 164.886L241.797 170C257.327 173.409 270.348 177.907 280.859 183.494C291.465 188.987 299.799 195.521 305.859 203.097C311.92 210.672 315.897 219.148 317.791 228.523C319.78 237.898 319.827 248.125 317.933 259.205C314.714 278.333 307.28 294.527 295.632 307.784C283.984 321.042 268.786 331.127 250.036 338.04C231.286 344.953 209.6 348.409 184.979 348.409C159.789 348.409 138.388 344.669 120.774 337.188C103.255 329.612 90.5658 318.059 82.706 302.528C74.9408 286.903 73.0469 266.97 77.0241 242.727H152.024C150.888 251.629 151.835 259.11 154.865 265.17C157.895 271.231 162.772 275.824 169.496 278.949C176.219 282.074 184.6 283.636 194.638 283.636C203.161 283.636 210.452 282.595 216.513 280.511C222.573 278.428 227.356 275.54 230.859 271.847C234.363 268.153 236.494 263.939 237.251 259.205C238.009 254.848 237.251 250.966 234.979 247.557C232.706 244.148 228.587 241.07 222.621 238.324C216.655 235.578 208.464 233.068 198.047 230.795L170.206 224.545C145.49 218.864 126.835 209.489 114.24 196.42C101.645 183.352 97.1946 165.455 100.888 142.727C103.918 124.167 111.541 107.973 123.757 94.1477C136.068 80.2273 151.693 69.4318 170.632 61.7614C189.666 53.9962 210.736 50.1136 233.842 50.1136C257.327 50.1136 276.977 54.0436 292.791 61.9034C308.7 69.7633 320.111 80.7955 327.024 95C334.032 109.205 335.926 125.871 332.706 145H257.138Z" fill="url(#paint1_linear_201_2)"/>
</g>
</g>
<defs>
<filter id="filter0_d_201_2" x="67.0582" y="50.1136" width="274.477" height="306.295" filterUnits="userSpaceOnUse" color-interpolation-filters="sRGB">
<feFlood flood-opacity="0" result="BackgroundImageFix"/>
<feColorMatrix in="SourceAlpha" type="matrix" values="0 0 0 0 0 0 0 0 0 0 0 0 0 0 0 0 0 0 127 0" result="hardAlpha"/>
<feOffset dy="4"/>
<feGaussianBlur stdDeviation="2"/>
<feComposite in2="hardAlpha" operator="out"/>
<feColorMatrix type="matrix" values="0 0 0 0 0 0 0 0 0 0 0 0 0 0 0 0 0 0 0.25 0"/>
<feBlend mode="normal" in2="BackgroundImageFix" result="effect1_dropShadow_201_2"/>
<feBlend mode="normal" in="SourceGraphic" in2="effect1_dropShadow_201_2" result="shape"/>
</filter>
<linearGradient id="paint0_linear_201_2" x1="0" y1="200" x2="400" y2="200" gradientUnits="userSpaceOnUse">
<stop stop-color="#FBC2EB"/>
<stop offset="1" stop-color="#A6C1EE"/>
</linearGradient>
<linearGradient id="paint1_linear_201_2" x1="0" y1="200" x2="400" y2="200" gradientUnits="userSpaceOnUse">
<stop stop-color="#874DA2"/>
<stop offset="1" stop-color="#C43A30"/>
</linearGradient>
<clipPath id="clip0_201_2">
<rect width="400" height="400" fill="white"/>
</clipPath>
</defs>
</svg>
